<svg version="1.1" xmlns="http://www.w3.org/2000/svg" xmlns:xlink="http://www.w3.org/1999/xlink" width="595" height="380"><defs/><g><text fill="#eeeeee" stroke="none" font-family="Arial" font-size="24px" font-style="normal" font-weight="normal" text-decoration="none" x="0" y="0">UNREGISTERED</text><text fill="#eeeeee" stroke="none" font-family="Arial" font-size="24px" font-style="normal" font-weight="normal" text-decoration="none" x="0" y="30">UNREGISTERED</text><text fill="#eeeeee" stroke="none" font-family="Arial" font-size="24px" font-style="normal" font-weight="normal" text-decoration="none" x="0" y="60">UNREGISTERED</text><text fill="#eeeeee" stroke="none" font-family="Arial" font-size="24px" font-style="normal" font-weight="normal" text-decoration="none" x="0" y="90">UNREGISTERED</text><text fill="#eeeeee" stroke="none" font-family="Arial" font-size="24px" font-style="normal" font-weight="normal" text-decoration="none" x="0" y="120">UNREGISTERED</text><text fill="#eeeeee" stroke="none" font-family="Arial" font-size="24px" font-style="normal" font-weight="normal" text-decoration="none" x="0" y="150">UNREGISTERED</text><text fill="#eeeeee" stroke="none" font-family="Arial" font-size="24px" font-style="normal" font-weight="normal" text-decoration="none" x="0" y="180">UNREGISTERED</text><text fill="#eeeeee" stroke="none" font-family="Arial" font-size="24px" font-style="normal" font-weight="normal" text-decoration="none" x="0" y="210">UNREGISTERED</text><text fill="#eeeeee" stroke="none" font-family="Arial" font-size="24px" font-style="normal" font-weight="normal" text-decoration="none" x="0" y="240">UNREGISTERED</text><text fill="#eeeeee" stroke="none" font-family="Arial" font-size="24px" font-style="normal" font-weight="normal" text-decoration="none" x="0" y="270">UNREGISTERED</text><text fill="#eeeeee" stroke="none" font-family="Arial" font-size="24px" font-style="normal" font-weight="normal" text-decoration="none" x="0" y="300">UNREGISTERED</text><text fill="#eeeeee" stroke="none" font-family="Arial" font-size="24px" font-style="normal" font-weight="normal" text-decoration="none" x="0" y="330">UNREGISTERED</text><text fill="#eeeeee" stroke="none" font-family="Arial" font-size="24px" font-style="normal" font-weight="normal" text-decoration="none" x="0" y="360">UNREGISTERED</text><text fill="#eeeeee" stroke="none" font-family="Arial" font-size="24px" font-style="normal" font-weight="normal" text-decoration="none" x="200" y="0">UNREGISTERED</text><text fill="#eeeeee" stroke="none" font-family="Arial" font-size="24px" font-style="normal" font-weight="normal" text-decoration="none" x="200" y="30">UNREGISTERED</text><text fill="#eeeeee" stroke="none" font-family="Arial" font-size="24px" font-style="normal" font-weight="normal" text-decoration="none" x="200" y="60">UNREGISTERED</text><text fill="#eeeeee" stroke="none" font-family="Arial" font-size="24px" font-style="normal" font-weight="normal" text-decoration="none" x="200" y="90">UNREGISTERED</text><text fill="#eeeeee" stroke="none" font-family="Arial" font-size="24px" font-style="normal" font-weight="normal" text-decoration="none" x="200" y="120">UNREGISTERED</text><text fill="#eeeeee" stroke="none" font-family="Arial" font-size="24px" font-style="normal" font-weight="normal" text-decoration="none" x="200" y="150">UNREGISTERED</text><text fill="#eeeeee" stroke="none" font-family="Arial" font-size="24px" font-style="normal" font-weight="normal" text-decoration="none" x="200" y="180">UNREGISTERED</text><text fill="#eeeeee" stroke="none" font-family="Arial" font-size="24px" font-style="normal" font-weight="normal" text-decoration="none" x="200" y="210">UNREGISTERED</text><text fill="#eeeeee" stroke="none" font-family="Arial" font-size="24px" font-style="normal" font-weight="normal" text-decoration="none" x="200" y="240">UNREGISTERED</text><text fill="#eeeeee" stroke="none" font-family="Arial" font-size="24px" font-style="normal" font-weight="normal" text-decoration="none" x="200" y="270">UNREGISTERED</text><text fill="#eeeeee" stroke="none" font-family="Arial" font-size="24px" font-style="normal" font-weight="normal" text-decoration="none" x="200" y="300">UNREGISTERED</text><text fill="#eeeeee" stroke="none" font-family="Arial" font-size="24px" font-style="normal" font-weight="normal" text-decoration="none" x="200" y="330">UNREGISTERED</text><text fill="#eeeeee" stroke="none" font-family="Arial" font-size="24px" font-style="normal" font-weight="normal" text-decoration="none" x="200" y="360">UNREGISTERED</text><text fill="#eeeeee" stroke="none" font-family="Arial" font-size="24px" font-style="normal" font-weight="normal" text-decoration="none" x="400" y="0">UNREGISTERED</text><text fill="#eeeeee" stroke="none" font-family="Arial" font-size="24px" font-style="normal" font-weight="normal" text-decoration="none" x="400" y="30">UNREGISTERED</text><text fill="#eeeeee" stroke="none" font-family="Arial" font-size="24px" font-style="normal" font-weight="normal" text-decoration="none" x="400" y="60">UNREGISTERED</text><text fill="#eeeeee" stroke="none" font-family="Arial" font-size="24px" font-style="normal" font-weight="normal" text-decoration="none" x="400" y="90">UNREGISTERED</text><text fill="#eeeeee" stroke="none" font-family="Arial" font-size="24px" font-style="normal" font-weight="normal" text-decoration="none" x="400" y="120">UNREGISTERED</text><text fill="#eeeeee" stroke="none" font-family="Arial" font-size="24px" font-style="normal" font-weight="normal" text-decoration="none" x="400" y="150">UNREGISTERED</text><text fill="#eeeeee" stroke="none" font-family="Arial" font-size="24px" font-style="normal" font-weight="normal" text-decoration="none" x="400" y="180">UNREGISTERED</text><text fill="#eeeeee" stroke="none" font-family="Arial" font-size="24px" font-style="normal" font-weight="normal" text-decoration="none" x="400" y="210">UNREGISTERED</text><text fill="#eeeeee" stroke="none" font-family="Arial" font-size="24px" font-style="normal" font-weight="normal" text-decoration="none" x="400" y="240">UNREGISTERED</text><text fill="#eeeeee" stroke="none" font-family="Arial" font-size="24px" font-style="normal" font-weight="normal" text-decoration="none" x="400" y="270">UNREGISTERED</text><text fill="#eeeeee" stroke="none" font-family="Arial" font-size="24px" font-style="normal" font-weight="normal" text-decoration="none" x="400" y="300">UNREGISTERED</text><text fill="#eeeeee" stroke="none" font-family="Arial" font-size="24px" font-style="normal" font-weight="normal" text-decoration="none" x="400" y="330">UNREGISTERED</text><text fill="#eeeeee" stroke="none" font-family="Arial" font-size="24px" font-style="normal" font-weight="normal" text-decoration="none" x="400" y="360">UNREGISTERED</text><g transform="translate(-174,-94) scale(1,1)"><rect fill="#C0C0C0" stroke="none" x="263" y="111" width="503" height="360" opacity="0.2"/></g><g transform="translate(-174,-94) scale(1,1)"><rect fill="#ffffff" stroke="none" x="256" y="104" width="503" height="360"/></g><g transform="translate(-174,-94) scale(1,1)"><path fill="none" stroke="#000000" d="M 256 104 L 759 104 L 759 464 L 256 464 L 256 104 Z Z" stroke-miterlimit="10"/></g><g transform="translate(-174,-94) scale(1,1)"><g><path fill="none" stroke="none"/><text fill="#000000" stroke="none" font-family="Arial" font-size="13px" font-style="normal" font-weight="bold" text-decoration="none" x="448.254150390625" y="123.5">Chess Puzzle Game</text></g></g><g transform="translate(-174,-94) scale(1,1)"><path fill="#C0C0C0" stroke="none" d="M 303 168 C 303 158.6111584 337.9217856 151 381 151 C 424.0782144 151 459 158.6111584 459 168 C 459 177.3888416 424.0782144 185 381 185 C 337.9217856 185 303 177.3888416 303 168 Z" opacity="0.2"/></g><g transform="translate(-174,-94) scale(1,1)"><path fill="#ffffff" stroke="none" d="M 296 161 C 296 151.6111584 330.9217856 144 374 144 C 417.0782144 144 452 151.6111584 452 161 C 452 170.3888416 417.0782144 178 374 178 C 330.9217856 178 296 170.3888416 296 161 Z"/></g><g transform="translate(-174,-94) scale(1,1)"><path fill="none" stroke="#000000" d="M 296 161 C 296 151.6111584 330.9217856 144 374 144 C 417.0782144 144 452 151.6111584 452 161 C 452 170.3888416 417.0782144 178 374 178 C 330.9217856 178 296 170.3888416 296 161 Z" stroke-miterlimit="10"/></g><g transform="translate(-174,-94) scale(1,1)"><g><path fill="none" stroke="none"/><text fill="#000000" stroke="none" font-family="Arial" font-size="13px" font-style="normal" font-weight="bold" text-decoration="none" x="325.23095703125" y="168">Play New Puzzle</text></g></g><g transform="translate(-174,-94) scale(1,1)"><path fill="#C0C0C0" stroke="none" d="M 311 312 C 311 302.6111584 349.7273648 295 397.5 295 C 445.2726352 295 484 302.6111584 484 312 C 484 321.3888416 445.2726352 329 397.5 329 C 349.7273648 329 311 321.3888416 311 312 Z" opacity="0.2"/></g><g transform="translate(-174,-94) scale(1,1)"><path fill="#ffffff" stroke="none" d="M 304 305 C 304 295.6111584 342.7273648 288 390.5 288 C 438.2726352 288 477 295.6111584 477 305 C 477 314.3888416 438.2726352 322 390.5 322 C 342.7273648 322 304 314.3888416 304 305 Z"/></g><g transform="translate(-174,-94) scale(1,1)"><path fill="none" stroke="#000000" d="M 304 305 C 304 295.6111584 342.7273648 288 390.5 288 C 438.2726352 288 477 295.6111584 477 305 C 477 314.3888416 438.2726352 322 390.5 322 C 342.7273648 322 304 314.3888416 304 305 Z" stroke-miterlimit="10"/></g><g transform="translate(-174,-94) scale(1,1)"><g><path fill="none" stroke="none"/><text fill="#000000" stroke="none" font-family="Arial" font-size="13px" font-style="normal" font-weight="bold" text-decoration="none" x="336.31005859375" y="312">Move Chess Piece</text></g></g><g transform="translate(-174,-94) scale(1,1)"><path fill="#C0C0C0" stroke="none" d="M 559 160 C 559 150.6111584 588.9969184 143 626 143 C 663.0030816 143 693 150.6111584 693 160 C 693 169.3888416 663.0030816 177 626 177 C 588.9969184 177 559 169.3888416 559 160 Z" opacity="0.2"/></g><g transform="translate(-174,-94) scale(1,1)"><path fill="#ffffff" stroke="none" d="M 552 153 C 552 143.6111584 581.9969184 136 619 136 C 656.0030816 136 686 143.6111584 686 153 C 686 162.3888416 656.0030816 170 619 170 C 581.9969184 170 552 162.3888416 552 153 Z"/></g><g transform="translate(-174,-94) scale(1,1)"><path fill="none" stroke="#000000" d="M 552 153 C 552 143.6111584 581.9969184 136 619 136 C 656.0030816 136 686 143.6111584 686 153 C 686 162.3888416 656.0030816 170 619 170 C 581.9969184 170 552 162.3888416 552 153 Z" stroke-miterlimit="10"/></g><g transform="translate(-174,-94) scale(1,1)"><g><path fill="none" stroke="none"/><text fill="#000000" stroke="none" font-family="Arial" font-size="13px" font-style="normal" font-weight="bold" text-decoration="none" x="578.29248046875" y="160">Validate Move</text></g></g><g transform="translate(-174,-94) scale(1,1)"><path fill="#C0C0C0" stroke="none" d="M 527 320 C 527 310.6111584 579.8303936 303 645 303 C 710.1696064 303 763 310.6111584 763 320 C 763 329.3888416 710.1696064 337 645 337 C 579.8303936 337 527 329.3888416 527 320 Z" opacity="0.2"/></g><g transform="translate(-174,-94) scale(1,1)"><path fill="#ffffff" stroke="none" d="M 520 313 C 520 303.6111584 572.8303936 296 638 296 C 703.1696064 296 756 303.6111584 756 313 C 756 322.3888416 703.1696064 330 638 330 C 572.8303936 330 520 322.3888416 520 313 Z"/></g><g transform="translate(-174,-94) scale(1,1)"><path fill="none" stroke="#000000" d="M 520 313 C 520 303.6111584 572.8303936 296 638 296 C 703.1696064 296 756 303.6111584 756 313 C 756 322.3888416 703.1696064 330 638 330 C 572.8303936 330 520 322.3888416 520 313 Z" stroke-miterlimit="10"/></g><g transform="translate(-174,-94) scale(1,1)"><g><path fill="none" stroke="none"/><text fill="#000000" stroke="none" font-family="Arial" font-size="13px" font-style="normal" font-weight="bold" text-decoration="none" x="563.576904296875" y="320">Check Puzzle Completion</text></g></g><g transform="translate(-174,-94) scale(1,1)"><path fill="#C0C0C0" stroke="none" d="M 559 432 C 559 422.6111584 592.8024976 415 634.5 415 C 676.1975024 415 710 422.6111584 710 432 C 710 441.3888416 676.1975024 449 634.5 449 C 592.8024976 449 559 441.3888416 559 432 Z" opacity="0.2"/></g><g transform="translate(-174,-94) scale(1,1)"><path fill="#ffffff" stroke="none" d="M 552 425 C 552 415.6111584 585.8024976 408 627.5 408 C 669.1975024 408 703 415.6111584 703 425 C 703 434.3888416 669.1975024 442 627.5 442 C 585.8024976 442 552 434.3888416 552 425 Z"/></g><g transform="translate(-174,-94) scale(1,1)"><path fill="none" stroke="#000000" d="M 552 425 C 552 415.6111584 585.8024976 408 627.5 408 C 669.1975024 408 703 415.6111584 703 425 C 703 434.3888416 669.1975024 442 627.5 442 C 585.8024976 442 552 434.3888416 552 425 Z" stroke-miterlimit="10"/></g><g transform="translate(-174,-94) scale(1,1)"><g><path fill="none" stroke="none"/><text fill="#000000" stroke="none" font-family="Arial" font-size="13px" font-style="normal" font-weight="bold" text-decoration="none" x="581.615966796875" y="432">Calculate Score</text></g></g><g transform="translate(-174,-94) scale(1,1)"><path fill="#C0C0C0" stroke="none" d="M 343 432 C 343 422.6111584 369.6390544 415 402.5 415 C 435.3609456 415 462 422.6111584 462 432 C 462 441.3888416 435.3609456 449 402.5 449 C 369.6390544 449 343 441.3888416 343 432 Z" opacity="0.2"/></g><g transform="translate(-174,-94) scale(1,1)"><path fill="#ffffff" stroke="none" d="M 336 425 C 336 415.6111584 362.6390544 408 395.5 408 C 428.3609456 408 455 415.6111584 455 425 C 455 434.3888416 428.3609456 442 395.5 442 C 362.6390544 442 336 434.3888416 336 425 Z"/></g><g transform="translate(-174,-94) scale(1,1)"><path fill="none" stroke="#000000" d="M 336 425 C 336 415.6111584 362.6390544 408 395.5 408 C 428.3609456 408 455 415.6111584 455 425 C 455 434.3888416 428.3609456 442 395.5 442 C 362.6390544 442 336 434.3888416 336 425 Z" stroke-miterlimit="10"/></g><g transform="translate(-174,-94) scale(1,1)"><g><path fill="none" stroke="none"/><text fill="#000000" stroke="none" font-family="Arial" font-size="13px" font-style="normal" font-weight="bold" text-decoration="none" x="360.82275390625" y="432">Display Hint</text></g></g><g transform="translate(-174,-94) scale(1,1)"><path fill="#ffffff" stroke="none" d="M 200.40935031960228 249.68 C 200.40935031960228 244.886167936 204.29519264454774 241 209.088623046875 241 C 213.88205344920226 241 217.76789577414772 244.886167936 217.76789577414772 249.68 C 217.76789577414772 254.47383206400002 213.88205344920226 258.36 209.088623046875 258.36 C 204.29519264454774 258.36 200.40935031960228 254.47383206400002 200.40935031960228 249.68 Z"/></g><g transform="translate(-174,-94) scale(1,1)"><path fill="none" stroke="#000000" d="M 200.40935031960228 249.68 C 200.40935031960228 244.886167936 204.29519264454774 241 209.088623046875 241 C 213.88205344920226 241 217.76789577414772 244.886167936 217.76789577414772 249.68 C 217.76789577414772 254.47383206400002 213.88205344920226 258.36 209.088623046875 258.36 C 204.29519264454774 258.36 200.40935031960228 254.47383206400002 200.40935031960228 249.68 Z" stroke-miterlimit="10"/></g><g transform="translate(-174,-94) scale(1,1)"><path fill="none" stroke="#000000" d="M 209.088623046875 258.36 L 209.088623046875 275.64" stroke-miterlimit="10"/></g><g transform="translate(-174,-94) scale(1,1)"><path fill="none" stroke="#000000" d="M 199.89880486505683 264.84 L 218.27844122869317 264.84" stroke-miterlimit="10"/></g><g transform="translate(-174,-94) scale(1,1)"><path fill="none" stroke="#000000" d="M 209.088623046875 275.64 L 196.32498668323865 293" stroke-miterlimit="10"/></g><g transform="translate(-174,-94) scale(1,1)"><path fill="none" stroke="#000000" d="M 209.088623046875 275.64 L 221.85225941051135 293" stroke-miterlimit="10"/></g><g transform="translate(-174,-94) scale(1,1)"><g><path fill="none" stroke="none"/><text fill="#000000" stroke="none" font-family="Arial" font-size="13px" font-style="normal" font-weight="bold" text-decoration="none" x="190.66455078125" y="313.5">Player</text></g></g><g transform="translate(-174,-94) scale(1,1)"><path fill="none" stroke="#000000" d="M 394 407 L 391 323" stroke-miterlimit="10" stroke-dasharray="3"/></g><g transform="translate(-174,-94) scale(1,1)"><path fill="none" stroke="#000000" d="M 395.56955709984743 333.00595562208997 L 391 323 L 387.1558857396898 333.3064438849527" stroke-miterlimit="10"/></g><g transform="translate(-174,-94) scale(1,1)"><g><path fill="none" stroke="none"/><text fill="#000000" stroke="none" font-family="Arial" font-size="13px" font-style="normal" font-weight="normal" text-decoration="none" x="335.5" y="371.5">«extend»</text></g></g><g transform="translate(-174,-94) scale(1,1)"><path fill="none" stroke="#000000" d="M 376 179 L 388 287" stroke-miterlimit="10" stroke-dasharray="3"/></g><g transform="translate(-174,-94) scale(1,1)"><path fill="none" stroke="#000000" d="M 382.693949077946 277.36434622806684 L 388 287 L 391.06149153499416 276.4346192883948" stroke-miterlimit="10"/></g><g transform="translate(-174,-94) scale(1,1)"><g><path fill="none" stroke="none"/><text fill="#000000" stroke="none" font-family="Arial" font-size="13px" font-style="normal" font-weight="normal" text-decoration="none" x="383.5" y="235.5">«include»</text></g></g><g transform="translate(-174,-94) scale(1,1)"><path fill="none" stroke="#000000" d="M 417 287 L 592 171" stroke-miterlimit="10" stroke-dasharray="3"/></g><g transform="translate(-174,-94) scale(1,1)"><path fill="none" stroke="#000000" d="M 585.8550378251488 180.12356508551602 L 592 171 L 581.2035208354627 173.10619031659303" stroke-miterlimit="10"/></g><g transform="translate(-174,-94) scale(1,1)"><g><path fill="none" stroke="none"/><text fill="#000000" stroke="none" font-family="Arial" font-size="13px" font-style="normal" font-weight="normal" text-decoration="none" x="459.5" y="209.5">«include»</text></g></g><g transform="translate(-174,-94) scale(1,1)"><path fill="none" stroke="#000000" d="M 478 308 L 519 309" stroke-miterlimit="10" stroke-dasharray="3"/></g><g transform="translate(-174,-94) scale(1,1)"><path fill="none" stroke="#000000" d="M 508.73770596101974 312.96046980262577 L 519 309 L 508.94298724038555 304.543937348628" stroke-miterlimit="10"/></g><g transform="translate(-174,-94) scale(1,1)"><g><path fill="none" stroke="none"/><text fill="#000000" stroke="none" font-family="Arial" font-size="13px" font-style="normal" font-weight="normal" text-decoration="none" x="471.5" y="284.5">«include»</text></g></g><g transform="translate(-174,-94) scale(1,1)"><path fill="none" stroke="#000000" d="M 235 260 L 349 179" stroke-miterlimit="10"/></g><g transform="translate(-174,-94) scale(1,1)"><path fill="none" stroke="#000000" d="M 636 331 L 629 407" stroke-miterlimit="10" stroke-dasharray="3"/></g><g transform="translate(-174,-94) scale(1,1)"><path fill="none" stroke="#000000" d="M 625.7403154563693 396.49407516322265 L 629 407 L 634.1238656493912 397.26624425994834" stroke-miterlimit="10"/></g><g transform="translate(-174,-94) scale(1,1)"><g><path fill="none" stroke="none"/><text fill="#000000" stroke="none" font-family="Arial" font-size="13px" font-style="normal" font-weight="normal" text-decoration="none" x="633.5" y="377.5">«include»</text></g></g><g transform="translate(-174,-94) scale(1,1)"><path fill="none" stroke="#000000" d="M 235 283 L 303 293" stroke-miterlimit="10"/></g><g transform="translate(-174,-94) scale(1,1)"><path fill="none" stroke="#000000" d="M 235 300 L 372 407" stroke-miterlimit="10"/></g></g></svg>